<svg id="Camada_1" data-name="Camada 1" xmlns="http://www.w3.org/2000/svg" viewBox="0 0 64 43.78"><defs><style>.cls-1{fill:#1d1d1b;stroke:#1d1d1b;stroke-miterlimit:10;stroke-width:0.5px;}.cls-2{fill:#fdc728;}.cls-3{fill:#563a33;}.cls-4{fill:#e89805;}.cls-5{fill:#6e4393;}.cls-6{fill:#29235c;}.cls-7{font-size:5.14px;fill:#36a9e1;}.cls-7,.cls-8{font-family:JetBrainsMono-Bold, JetBrains Mono;font-weight:700;}.cls-8{font-size:32.88px;fill:#fff;}</style></defs><path class="cls-1" d="M27.37,17.8c.78-1.39,4.78-3.41,8.47-.12,1,.6,4.64-.19,5.36,5-.26.43-.33.74.23,1.16,1.55,1.13,1.47,4.56.75,4.59-.62.28,0,.94.13.82.66,1.3.41,3.19-.19,3.7-.95,1.5-.76,1.09-3.83.65-4.15-.59-4.69,3.19-7.39,2.92-1.81-.18-1.9-1.36-4.48-1.7-1.89-.25-2.27.18-3.33-.11-3.38-.94-2.91-3.86-2.16-5.55-.39-2.18-1.38-2.44.85-5.57C21.78,18.34,25.28,18.05,27.37,17.8Z" transform="translate(0 -15.65)"/><path class="cls-2" d="M31.13,21.13C26.5,21.46,21.85,31,25.46,35c2.73,3,10.25,2.85,12.73-.62,1.51-2.11.72-4.82.37-6C37.54,24.88,34.26,20.9,31.13,21.13Z" transform="translate(0 -15.65)"/><ellipse class="cls-3" cx="27.73" cy="13.56" rx="1.15" ry="1.24"/><ellipse class="cls-3" cx="35.61" cy="13.56" rx="1.15" ry="1.24"/><path class="cls-1" d="M26,27a.42.42,0,0,0,0,.34c.09.12.27.09.33.08.24,0,.33-.19.54-.34a1.5,1.5,0,0,1,.95-.21,1.39,1.39,0,0,1,.73.23c.19.13.24.26.45.31a.44.44,0,0,0,.41-.07.41.41,0,0,0,.11-.35c-.05-.44-1-.81-1.83-.8S26.16,26.55,26,27Z" transform="translate(0 -15.65)"/><path class="cls-1" d="M33.85,27a.46.46,0,0,0,0,.34c.09.12.28.09.33.08.25,0,.33-.19.55-.34a1.48,1.48,0,0,1,1-.21,1.42,1.42,0,0,1,.73.23c.18.13.24.26.45.31A.38.38,0,0,0,37.4,27c0-.44-1-.81-1.84-.8S34,26.55,33.85,27Z" transform="translate(0 -15.65)"/><path class="cls-4" d="M30.67,31.64a1,1,0,0,0,.11.82c.19.25.5.26.86.26s.61,0,.82-.2a1.1,1.1,0,0,0,.2-.89Z" transform="translate(0 -15.65)"/><path class="cls-5" d="M18.45,46.28l26.59,0a7.45,7.45,0,0,0-3.22-5.19L22.13,41C20.09,41.67,18.93,43.52,18.45,46.28Z" transform="translate(0 -15.65)"/><path class="cls-1" d="M28.3,23.38s.53.47,1.54,1.24a4.08,4.08,0,0,0,2.05,1,3,3,0,0,0,2-.59,3,3,0,0,0,1.83.76A2.91,2.91,0,0,0,37,25.57a5.49,5.49,0,0,0,1,1.78c.29.32,1.41,1.6,2,1.36.9-.39.85-5.19-1.6-6.85-1-.65-1.42-.22-5.34-.62-3.3-.33-3.56-.69-4.87-.41-.44.09-3.32.76-4.39,3.23-.91,2.09-.12,4.56.36,4.59.24,0-.26-1.4.47-2.16a3.17,3.17,0,0,1,.77-.42c1.18-.57,1.21-.53,1.45-.68A4,4,0,0,0,28.3,23.38Z" transform="translate(0 -15.65)"/><path class="cls-6" d="M41.4,33.5H22a1.56,1.56,0,0,0-1.49,1.62V46.28H42.9V35.12A1.57,1.57,0,0,0,41.4,33.5Z" transform="translate(0 -15.65)"/><text class="cls-7" transform="translate(30.18 26.28) scale(0.93 1)">C</text><text class="cls-8" transform="translate(0 30.63) scale(0.93 1)">&lt;</text><text class="cls-8" transform="matrix(-0.93, 0, 0, 1, 64, 30.63)">&lt;</text></svg>