<svg id="Camada_1" data-name="Camada 1" xmlns="http://www.w3.org/2000/svg" viewBox="0 0 500 335.96"><defs><style>.cls-1{fill:#1d1d1b;stroke:#1d1d1b;stroke-miterlimit:10;stroke-width:0.5px;}.cls-2{fill:#fdc728;}.cls-3{fill:#563a33;}.cls-4{fill:#e89805;}.cls-5{fill:#6e4393;}.cls-6{fill:#29235c;}.cls-7{font-size:39.62px;fill:#36a9e1;}.cls-7,.cls-8{font-family:JetBrainsMono-Bold, JetBrains Mono;font-weight:700;}.cls-8{font-size:253.58px;fill:#fff;}</style></defs><path class="cls-1" d="M213.83,147.49c6.1-10.69,37.35-26.31,66.15-.87,8.08,4.57,36.27-1.53,41.89,38.84-2,3.28-2.55,5.68,1.79,8.95,12.14,8.73,11.5,35.14,5.88,35.36-4.86,2.18.38,7.26,1,6.32,5.13,10,3.19,24.65-1.54,28.59-7.4,11.57-5.92,8.39-29.88,5-32.45-4.55-36.64,24.53-57.73,22.48-14.17-1.38-14.89-10.46-35-13.09-14.78-1.94-17.78,1.39-26.06-.88C154,271,157.69,248.46,163.5,235.44c-3.06-16.8-10.78-18.82,6.65-43C170.15,151.64,197.48,149.46,213.83,147.49Z" transform="translate(0 -132.61)"/><path class="cls-2" d="M243.19,173.17c-36.12,2.6-72.46,76.14-44.33,106.71C220.22,303.09,279,301.8,298.39,275c11.79-16.25,5.57-37.11,2.87-46.13C293.28,202.14,267.68,171.41,243.19,173.17Z" transform="translate(0 -132.61)"/><ellipse class="cls-3" cx="216.62" cy="102.88" rx="8.98" ry="9.56"/><ellipse class="cls-3" cx="278.22" cy="102.88" rx="8.98" ry="9.56"/><path class="cls-1" d="M203.46,218.34a3.21,3.21,0,0,0,.2,2.62c.7.88,2.13.68,2.56.61,1.92-.27,2.59-1.51,4.27-2.63a11.64,11.64,0,0,1,7.41-1.61,10.44,10.44,0,0,1,5.7,1.71c1.44,1,1.89,2,3.52,2.43.39.1,2.14.54,3.23-.5a3.52,3.52,0,0,0,.85-2.73c-.39-3.44-7.81-6.29-14.34-6.18C210.63,212.18,204.35,215,203.46,218.34Z" transform="translate(0 -132.61)"/><path class="cls-1" d="M264.44,218.34a3.17,3.17,0,0,0,.2,2.62c.69.88,2.12.68,2.56.61,1.92-.27,2.58-1.51,4.27-2.63a11.63,11.63,0,0,1,7.41-1.61,10.44,10.44,0,0,1,5.7,1.71c1.44,1,1.89,2,3.51,2.43.4.1,2.15.54,3.23-.5a3.49,3.49,0,0,0,.86-2.73c-.39-3.44-7.81-6.29-14.35-6.18C271.6,212.18,265.32,215,264.44,218.34Z" transform="translate(0 -132.61)"/><path class="cls-4" d="M239.62,254.25c-.15.6-1,4,.83,6.32,1.5,1.94,3.9,2,6.71,2s4.79.09,6.39-1.55c2.36-2.41,1.68-6.4,1.59-6.88Z" transform="translate(0 -132.61)"/><path class="cls-5" d="M144.13,367.14l207.71-.2c-3.47-18.22-11.79-31.64-25.15-40.06l-153.79-.61C157,331.59,147.87,345.85,144.13,367.14Z" transform="translate(0 -132.61)"/><path class="cls-1" d="M221.08,190.51s4.17,3.63,12,9.59c4.42,3.35,9.42,7.13,16,7.7,2.35.2,8.2.27,15.29-4.5a24.08,24.08,0,0,0,14.3,5.83,23.32,23.32,0,0,0,10-1.72,41.53,41.53,0,0,0,8.11,13.71c2.24,2.51,11,12.35,15.3,10.51,7.08-3,6.69-40-12.51-52.78-7.59-5-11.07-1.73-41.72-4.8-25.75-2.57-27.81-5.35-38-3.19-3.48.73-26,5.86-34.3,24.9-7.08,16.13-.9,35.19,2.78,35.42,1.92.11-2-10.75,3.74-16.68.35-.36.86-.73,6-3.2,9.2-4.44,9.47-4.08,11.36-5.26C217.89,200.78,221.08,190.51,221.08,190.51Z" transform="translate(0 -132.61)"/><path class="cls-6" d="M323.44,268.61H171.64c-6.45,0-11.68,5.57-11.68,12.45v86.08H335.12V281.06C335.12,274.18,329.89,268.61,323.44,268.61Z" transform="translate(0 -132.61)"/><text class="cls-7" transform="translate(235.76 201.01) scale(0.94 1)">C</text><text class="cls-8" transform="translate(0 234.54) scale(0.94 1)">&lt;</text><text class="cls-8" transform="matrix(-0.94, 0, 0, 1, 500, 234.54)">&lt;</text></svg>