<svg xmlns="http://www.w3.org/2000/svg" width="939.809" height="202.671" viewBox="0 0 939.809 202.671">
  <g id="NbHvTQ.tif" transform="translate(0.02 -0.002)" opacity="0.44">
    <path id="Path_2867" data-name="Path 2867" d="M442.95,106.216c0-31.022.128-62.062-.11-93.1,0-5.494,1.465-7.472,7.325-7.453q61.934.33,123.9,0c6.043,0,8.021,2,7.71,7.838a206.7,206.7,0,0,0,0,20.767c.256,5.622-1.959,7.49-7.545,7.453-27.689-.22-55.4,0-83.085-.238-6.043,0-7.636,1.685-7.417,7.582.476,11.922.366,23.807,0,35.8-.128,4.761,1.373,5.988,6.043,5.933,25.308-.22,50.617,0,75.907-.22,6.336,0,8.589,1.978,8.113,8.222a104.241,104.241,0,0,0,0,17.892c.7,7.325-2.454,8.735-9.046,8.644-24.594-.33-49.188,0-73.782-.238-5.494,0-7.545,1.1-7.325,7,.476,10.988.421,21.975,0,32.963-.22,5.494,1.282,7.325,7.087,7.234,27.689-.33,55.378,0,83.067-.275,5.86,0,8.222,1.63,7.875,7.673-.4,7.142-.238,14.321,0,21.481.128,4.743-1.52,6.886-6.611,6.867q-62.685-.165-125.351,0c-5.494,0-6.831-2.161-6.812-7.325C443.023,169.267,442.95,137.732,442.95,106.216Z" transform="translate(357.978 -5.46)" fill="#000000"/>
    <path id="Path_2868" data-name="Path 2868" d="M435.688,124.036v72.317c0,11.574,0,11.574-11.922,11.574-6.684,0-13.387-.421-20.034.11-7.105.568-9.468-1.831-9.413-9.156.311-49.628,0-99.274.33-148.9,0-6.886-1.52-8.863-8.5-8.552-14.046.6-28.165-.092-42.229.293-6.391.165-8.461-2.179-8.094-8.351a186.768,186.768,0,0,0,0-20.748c-.275-5.494,1.941-6.959,7.124-6.941q71.951.22,143.9,0c6.171,0,7.893,2.344,7.636,8q-.467,10,0,20.144c.275,5.787-1.831,8.131-7.838,8-15.017-.311-30.07,0-45.086-.2-4.651,0-6.043,1.209-6.007,5.933C435.8,72.98,435.688,98.508,435.688,124.036Z" transform="translate(268.988 -5.443)" fill="#000000"/>
    <path id="Path_2869" data-name="Path 2869" d="M206.767,12.863C186.4,24.419,176.459,43.354,171.423,65.018a184.575,184.575,0,0,0,0,83.525c4.963,21.737,15.456,40.288,35.124,52.356-4.487,6.831-11.977,5.292-18.441,6.483-2.985.549-6.116-.293-9.156.366-18.587,0-31.333-9.962-41.222-24.429-10.31-15.09-15.474-32.212-17.47-50.141-3.186-28.458-2.71-56.77,7.673-84a88.176,88.176,0,0,1,9.779-19.064c11.9-17.159,27.469-26.975,49.152-23.935,4.01,1.373,8.351.256,12.343,1.63C202.116,8.816,205.815,8.8,206.767,12.863Z" transform="translate(88.379 -5.485)" fill="#000000"/>
    <path id="Path_2870" data-name="Path 2870" d="M151.53,148.845c9.413-1.41,19.009-2.161,27.6-6.849,22.488-10.6,35-28.495,38.951-52.8,1.593-9.834,4.89-12.6,14.65-12.654,9.047,0,18.111-.128,27.158,0,5.659,0,10.493,2.417,9.6,8.827-2.893,20.529-9.962,39.263-26.792,52.668a51.7,51.7,0,0,1-31.864,10.8C191.067,149.211,171.29,148.845,151.53,148.845Z" transform="translate(115.817 53.419)" fill="#acca13"/>
    <path id="Path_2871" data-name="Path 2871" d="M175.771,12.929c-6.007-4.139-13.35-4.322-19.961-6.684a528.5,528.5,0,0,1,56.5.128,48.785,48.785,0,0,1,38.768,22.543,98.047,98.047,0,0,1,14.65,36.2c1.667,8.827-1.41,12.636-10.328,12.709s-17.654,0-26.48,0c-9.724,0-12.819-2.545-14.357-12.068C211.1,44.353,201.189,27.3,182.126,16.042,180.093,14.87,177.9,13.954,175.771,12.929Z" transform="translate(119.375 -5.55)" fill="#acca13"/>
    <path id="Path_2872" data-name="Path 2872" d="M183.9,198.744q-16.262-59.627-32.505-119.29-7.472-27.195-15.419-54.3c-2.985-10.182-9.3-17.232-20.4-18.441a177.357,177.357,0,0,0-39.3,0C67.116,7.759,61,13,57.648,21.476a112.111,112.111,0,0,0-3.663,10.8C42.082,74.748,30.4,117.252,18.349,159.628c-4.084,14.339-6.812,29.081-12.819,42.834v4.3c10.841,2.582,21.866.311,32.743,1.3,5.494.513,7.453-2.051,8.717-6.867,4.1-15.419,8.845-30.711,12.691-46.185,1.135-4.468,3.131-5.494,7.325-5.494q29.026.311,58.033,0c3.992,0,5.805,1.026,6.867,5.164,3.974,15.694,8.589,31.132,12.618,46.917,1.227,4.743,3.278,6.684,8.351,6.41,8.113-.44,16.243-.092,24.356-.128C185.856,207.937,186.223,207.3,183.9,198.744Zm-67.08-82.554H95.373c-7.142,0-13.9-.147-20.73,0-3.223,0-4.212-.751-3.3-4.084Q80.759,78.5,89.934,44.77c.787-2.893,2.179-4.615,5.347-4.67s5.494.733,6.483,4.194c6.171,22.708,12.325,45.416,18.642,68.087C121.487,116.19,119.509,116.19,116.817,116.19Z" transform="translate(-5.55 -5.49)" fill="#000000"/>
    <path id="Path_2873" data-name="Path 2873" d="M410.429,199.18q-16.372-59.993-32.762-119.967C372.759,61.284,368.053,43.3,362.5,25.574c-4.487-14.339-11.354-19.045-26.37-19.558-9.065-.311-18.166-.311-27.213,0-15.09.494-21.554,5.128-26.407,19.54C278.943,36.141,276.1,47,273.1,57.786c-13.222,47.5-26.3,95.062-39.684,142.51-1.7,6.043-.183,7.8,5.75,7.618,8.827-.256,17.69-.275,26.517,0,4.432.147,6.208-1.538,7.325-5.75,4.12-15.657,8.845-31.132,12.819-46.844,1.19-4.578,3.131-5.97,7.8-5.915q28.66.421,57.319,0c4.816,0,6.464,1.666,7.545,6.08,2.857,11.555,6.263,22.983,9.449,34.465,4.944,17.873,4.926,17.873,23.678,17.873h12.2C412.114,207.768,412.663,207.164,410.429,199.18Zm-77.3-83.122H296.725c5.494-20.144,10.878-39.849,16.262-59.517.934-3.443,1.831-6.886,2.838-10.31s1.831-6.318,6.391-6.263,5.6,2.582,6.556,6.08c5.018,18.569,10.164,37.12,15.2,55.689C347.854,116.058,347.8,116.058,333.13,116.058Z" transform="translate(183.345 -5.358)" fill="#000000"/>
  </g>
</svg>
