<svg id="Camada_1" data-name="Camada 1" xmlns="http://www.w3.org/2000/svg" viewBox="0 0 429.61 381.52"><defs><style>.cls-1,.cls-10,.cls-11{fill:#1d1d1b;}.cls-1{stroke:#1d1d1b;stroke-width:0.5px;}.cls-1,.cls-7{stroke-miterlimit:10;}.cls-2{fill:#fdc728;}.cls-3{fill:#563a33;}.cls-4{fill:#e89805;}.cls-5{fill:#6e4393;}.cls-6{fill:#3c3c3b;}.cls-7{fill:#fff;stroke:#8166a9;stroke-width:5px;}.cls-8{fill:#8166a9;}.cls-9{fill:#312783;}.cls-11{font-size:65px;font-family:JetBrainsMono-ExtraBold, JetBrains Mono;font-weight:800;}</style></defs><path class="cls-1" d="M110.22,215c6.46-11.15,39.54-27.46,70-.91,8.54,4.77,38.39-1.59,44.34,40.54-2.17,3.41-2.71,5.92,1.89,9.34,12.85,9.1,12.16,36.66,6.22,36.89-5.14,2.27.4,7.58,1.08,6.6,5.43,10.48,3.38,25.72-1.62,29.83-7.85,12.07-6.28,8.75-31.64,5.24-34.35-4.75-38.78,25.6-61.1,23.46-15-1.44-15.76-10.92-37-13.67-15.64-2-18.82,1.46-27.58-.91-27.92-7.54-24-31.05-17.84-44.63-3.25-17.54-11.42-19.64,7-44.86C64,219.31,92.92,217,110.22,215Z" transform="translate(-36.45 -62.67)"/><path class="cls-2" d="M141.31,241.78c-38.24,2.71-76.7,79.45-46.93,111.35C117,377.35,179.2,376,199.73,348.08c12.47-17,5.89-38.72,3-48.14C194.32,272,167.22,239.94,141.31,241.78Z" transform="translate(-36.45 -62.67)"/><ellipse class="cls-3" cx="76.73" cy="244.14" rx="9.5" ry="9.98"/><ellipse class="cls-3" cx="141.93" cy="244.14" rx="9.5" ry="9.98"/><path class="cls-1" d="M99.25,288.91a3.3,3.3,0,0,0,.21,2.74c.74.91,2.25.7,2.71.64,2-.29,2.74-1.58,4.52-2.75a12.46,12.46,0,0,1,7.85-1.68,11.09,11.09,0,0,1,6,1.79c1.52,1.07,2,2.11,3.72,2.53.42.11,2.27.57,3.42-.52a3.65,3.65,0,0,0,.9-2.85c-.41-3.59-8.26-6.57-15.18-6.44C106.84,282.48,100.19,285.44,99.25,288.91Z" transform="translate(-36.45 -62.67)"/><path class="cls-1" d="M163.8,288.91a3.3,3.3,0,0,0,.2,2.74c.74.91,2.25.7,2.71.64,2-.29,2.74-1.58,4.53-2.75a12.43,12.43,0,0,1,7.84-1.68,11.09,11.09,0,0,1,6,1.79c1.52,1.07,2,2.11,3.72,2.53.42.11,2.27.57,3.42-.52a3.61,3.61,0,0,0,.9-2.85c-.41-3.59-8.26-6.57-15.18-6.44C171.38,282.48,164.73,285.44,163.8,288.91Z" transform="translate(-36.45 -62.67)"/><path class="cls-4" d="M137.53,326.38c-.17.63-1,4.16.87,6.6,1.59,2,4.14,2.07,7.1,2.13s5.07.1,6.77-1.62c2.5-2.51,1.77-6.68,1.68-7.18Z" transform="translate(-36.45 -62.67)"/><path class="cls-5" d="M36.45,444.19,256.3,444c-3.67-19-12.47-33-26.62-41.81L66.9,401.54C50.05,407.09,40.41,422,36.45,444.19Z" transform="translate(-36.45 -62.67)"/><path class="cls-1" d="M117.9,259.87s4.42,3.8,12.75,10c4.69,3.5,10,7.44,16.94,8,2.49.21,8.68.29,16.18-4.69a25.67,25.67,0,0,0,15.14,6.08,25.16,25.16,0,0,0,10.62-1.79,43.1,43.1,0,0,0,8.58,14.31c2.37,2.61,11.66,12.88,16.2,11,7.49-3.16,7.07-41.73-13.25-55.07-8-5.27-11.71-1.81-44.16-5-27.25-2.68-29.43-5.59-40.23-3.34-3.68.77-27.48,6.13-36.31,26-7.48,16.83-1,36.72,3,37,2,.12-2.08-11.22,4-17.41.37-.37.91-.75,6.34-3.33,9.74-4.64,10-4.26,12-5.49C114.52,270.59,117.9,259.87,117.9,259.87Z" transform="translate(-36.45 -62.67)"/><path class="cls-6" d="M226.24,341.37H65.57c-6.83,0-12.37,5.82-12.37,13v89.83H238.61V354.36C238.61,347.19,233.07,341.37,226.24,341.37Z" transform="translate(-36.45 -62.67)"/><path class="cls-7" d="M228.68,142.15c-30.65-38.09,14.89-84.9,66.55-57,19.28-30.5,62.18-20.32,74.44-7.62,53-16.19,109,21.41,81.44,69.66,15.6,13.56,16,33.14,4.09,44-12.63,11.42-33.64,8.12-34.74,7.93-1.88,2.32-21,25-56.33,26-37.65,1.06-59.1-23.56-60.58-25.32C237.63,206,218.2,183.31,228.68,142.15Z" transform="translate(-36.45 -62.67)"/><ellipse class="cls-7" cx="287.94" cy="225.19" rx="12.25" ry="21.76" transform="translate(-13.16 414.68) rotate(-81.64)"/><ellipse class="cls-7" cx="248.55" cy="244.02" rx="7.08" ry="13.03" transform="translate(-65.76 391.39) rotate(-81.56)"/><path class="cls-8" d="M365.59,159.71l17.29-9.91a5.43,5.43,0,0,0,0-9.29l-17.32-10a5.33,5.33,0,0,1-2.61-4.64v-2.68a5,5,0,0,1,7.68-4.51l26.4,17a5.37,5.37,0,0,1,2.41,4.52v10.1A5.37,5.37,0,0,1,397,154.8l-26.4,16.89a5,5,0,0,1-7.67-4.52v-2.81A5.34,5.34,0,0,1,365.59,159.71Z" transform="translate(-36.45 -62.67)"/><path class="cls-9" d="M162.7,390.36V383.5a5,5,0,0,0-4.85-5.18H134.9a5,5,0,0,0-4.85,5.18v7.42a.64.64,0,0,0,1.06.51l4.73-4.37a1.52,1.52,0,0,1,2.53,1.24V389a1.69,1.69,0,0,1-.59,1.29l-4.24,3.51a1.7,1.7,0,0,0,0,2.58l4.25,3.54a1.68,1.68,0,0,1,.58,1.29v.65a1.52,1.52,0,0,1-2.53,1.23l-4.55-4.23a.74.74,0,0,0-1.24.6v5.94a5,5,0,0,0,4.85,5.18h22.95a5,5,0,0,0,4.85-5.18v-6.75a.67.67,0,0,0-1.12-.54l-4.67,4.34a1.52,1.52,0,0,1-2.53-1.23v-.64a1.67,1.67,0,0,1,.58-1.29l4.25-3.54a1.7,1.7,0,0,0,0-2.58L155,389.65a1.66,1.66,0,0,1-.59-1.3h0a1.81,1.81,0,0,1,3-1.47l4.29,4A.61.61,0,0,0,162.7,390.36Z" transform="translate(-36.45 -62.67)"/><path class="cls-10" d="M146.3,401.86a4.39,4.39,0,0,1-2.21-.54,3.82,3.82,0,0,1-1.48-1.53,4.74,4.74,0,0,1-.53-2.28v-6.13a4.76,4.76,0,0,1,.53-2.3,3.84,3.84,0,0,1,1.48-1.51,4.81,4.81,0,0,1,4.43,0,3.81,3.81,0,0,1,1.47,1.51,4.76,4.76,0,0,1,.53,2.3h-2.59a1.87,1.87,0,0,0-.43-1.33,1.82,1.82,0,0,0-2.4,0,1.91,1.91,0,0,0-.42,1.33v6.13a1.87,1.87,0,0,0,.42,1.31,1.77,1.77,0,0,0,2.4,0,1.83,1.83,0,0,0,.43-1.31h2.59a4.74,4.74,0,0,1-.53,2.28,3.8,3.8,0,0,1-1.47,1.53A4.4,4.4,0,0,1,146.3,401.86Z" transform="translate(-36.45 -62.67)"/><text class="cls-11" transform="translate(285.47 106.87) scale(0.95 1)">C</text><path class="cls-8" d="M319.36,164.36v2.81a5,5,0,0,1-7.67,4.52l-26.4-16.89a5.37,5.37,0,0,1-2.42-4.53v-10.1a5.35,5.35,0,0,1,2.41-4.52l26.4-17a5,5,0,0,1,7.68,4.51v2.68a5.33,5.33,0,0,1-2.61,4.64l-17.32,10a5.43,5.43,0,0,0,0,9.29l17.29,9.91A5.34,5.34,0,0,1,319.36,164.36Z" transform="translate(-36.45 -62.67)"/></svg>