<svg id="Camada_1" data-name="Camada 1" xmlns="http://www.w3.org/2000/svg" viewBox="0 0 600 550"><defs><style>.cls-1{fill:#6e07f3;}</style></defs><rect class="cls-1" width="600" height="550" rx="58.5"/><path class="cls-2" d="M409.75,421.11V377.64h18q9.79,0,15.19-5.12T447.32,359l-4.9-46.57q-1.31-14.58,8.66-24.68T479,274.87q-18-3.09-27.93-12.88t-8.66-24.06l4.9-46.88q.66-8.38-4.74-13.51t-14.86-5.12h-18V129h27.77q19.28,0,33.16,7t20.58,19.56q6.71,12.57,5.07,29.34l-4.9,46.88q-1,9.63,4.41,15.68t15.19,6h45.74v43.47H511q-9.79,0-15.19,5.9t-4.41,15.83l4.9,45q2,17.08-4.74,30t-20.75,20.18q-14,7.29-33.32,7.3Z" transform="translate(-0.45)"/><path class="cls-2" d="M303.33,389.7q-23.5,0-41.21-8.41t-27.53-23.56q-9.83-15.14-9.82-35.34V227.55q0-20.51,9.82-35.5t27.53-23.4q17.7-8.42,41.21-8.42,23.82,0,41.37,8.42t27.37,23.4q9.82,15,9.82,35.5h-48.3q0-13.47-7.88-20.5t-22.38-7q-14.49,0-22.38,7t-7.89,20.5v94.84q0,13.17,7.89,20.35t22.38,7.19q14.49,0,22.38-7.19t7.88-20.35h48.3q0,20.21-9.82,35.34T344.7,381.29Q327.15,389.7,303.33,389.7Z" transform="translate(-0.45)"/><path class="cls-2" d="M163.38,421.05q-19.29,0-33.33-7.3T109.3,393.57q-6.69-12.88-4.73-30l4.9-45q1-9.93-4.41-15.83t-15.2-5.9H44.12V253.39H89.86q9.81,0,15.2-6t4.41-15.68l-4.9-46.88q-1.65-16.77,5.06-29.34t20.58-19.56q13.89-7,33.17-7h27.77v43.47h-18q-9.48,0-14.87,5.12T153.57,191l4.9,46.88q1.31,14.28-8.65,24.06t-27.94,12.88q18,2.81,27.94,12.89t8.65,24.68L153.57,359q-1,8.39,4.41,13.51t15.2,5.12h18v43.47Z" transform="translate(-0.45)"/></svg>