<svg width="176" height="39" viewBox="0 0 176 39" fill="none" xmlns="http://www.w3.org/2000/svg">
<g id="Group 123">
<g id="Group">
<g id="Group_2">
<path id="Vector" d="M29.0222 5.08827C28.1004 4.46393 27.1157 3.93178 26.0933 3.50019C25.0541 3.06022 23.9647 2.72082 22.8585 2.49455C21.723 2.26409 20.5539 2.14258 19.3848 2.14258C18.2158 2.14258 17.0467 2.2599 15.9112 2.49455C14.805 2.72082 13.7155 3.06022 12.6764 3.50019C11.654 3.93178 10.6693 4.46812 9.74745 5.08827C8.834 5.70422 7.97501 6.41236 7.19564 7.19173C6.41627 7.97111 5.70813 8.83009 5.09217 9.74355C4.46784 10.6654 3.93569 11.6501 3.5041 12.6725C3.06413 13.7116 2.72473 14.8011 2.49846 15.9073C2.268 17.0428 2.14648 18.2119 2.14648 19.3809C2.14648 20.55 2.26381 21.7191 2.49846 22.8546C2.72473 23.9608 3.06413 25.0502 3.5041 26.0894C3.93569 27.1118 4.47203 28.0965 5.09217 29.0183C5.70813 29.9318 6.41627 30.7908 7.19564 31.5701C7.97501 32.3495 8.834 33.0577 9.74745 33.6736C10.6693 34.2979 11.654 34.8301 12.6764 35.2617C13.7155 35.7017 14.805 36.0411 15.9112 36.2673C17.0467 36.4978 18.2158 36.6193 19.3848 36.6193C20.5539 36.6193 21.723 36.502 22.8585 36.2673C23.9647 36.0411 25.0541 35.7017 26.0933 35.2617C27.1157 34.8301 28.1004 34.2938 29.0222 33.6736C29.9357 33.0577 30.7947 32.3495 31.5741 31.5701C32.3534 30.7908 33.0616 29.9318 33.6775 29.0183C34.3019 28.0965 34.834 27.1118 35.2656 26.0894C35.7056 25.0502 36.045 23.9608 36.2712 22.8546C36.5017 21.7191 36.6232 20.55 36.6232 19.3809C36.6232 18.2119 36.5059 17.0428 36.2712 15.9073C36.045 14.8011 35.7056 13.7116 35.2656 12.6725C34.834 11.6501 34.2977 10.6654 33.6775 9.74355C33.0616 8.83009 32.3534 7.97111 31.5741 7.19173C30.7947 6.41236 29.9357 5.70422 29.0222 5.08827ZM36.0659 19.3768C36.0659 28.5867 28.599 36.0578 19.3848 36.0578C10.1707 36.0578 2.70378 28.5909 2.70378 19.3768C2.70378 10.1626 10.1707 2.69568 19.3848 2.69568C28.599 2.69568 36.0659 10.1626 36.0659 19.3768Z" fill="black"/>
<path id="Vector_2" d="M38.3652 15.4743C38.1096 14.2298 37.7325 13.0063 37.2339 11.8372C36.7478 10.6891 36.1486 9.58292 35.4488 8.54376C34.7575 7.51717 33.9613 6.55343 33.0814 5.67768C32.2057 4.80194 31.2419 4.0058 30.2153 3.31024C29.1803 2.61048 28.07 2.01128 26.9218 1.52522C25.7528 1.03078 24.5293 0.649477 23.2848 0.393877C22.0068 0.134086 20.6952 0 19.3795 0C18.0638 0 16.7523 0.134086 15.4743 0.393877C14.2298 0.649477 13.0063 1.02659 11.8372 1.52522C10.6891 2.01128 9.58292 2.61048 8.54376 3.31024C7.51717 4.00161 6.55343 4.79775 5.67768 5.67768C4.80193 6.55343 4.0058 7.51717 3.31023 8.54376C2.61047 9.57873 2.01128 10.6891 1.52522 11.8372C1.03078 13.0063 0.649474 14.2298 0.393874 15.4743C0.134083 16.7523 0 18.0638 0 19.3795C0 20.6953 0.134083 22.0068 0.393874 23.2848C0.649474 24.5293 1.02659 25.7528 1.52522 26.9218C2.01128 28.07 2.61047 29.1762 3.31023 30.2153C4.00161 31.2419 4.79774 32.2057 5.67768 33.0814C6.55343 33.9571 7.51717 34.7533 8.54376 35.4488C9.57873 36.1486 10.6891 36.7478 11.8372 37.2339C13.0063 37.7283 14.2298 38.1096 15.4743 38.3652C16.7523 38.625 18.0638 38.7591 19.3795 38.7591C20.6952 38.7591 22.0068 38.625 23.2848 38.3652C24.5293 38.1096 25.7528 37.7325 26.9218 37.2339C28.07 36.7478 29.1762 36.1486 30.2153 35.4488C31.2419 34.7575 32.2057 33.9613 33.0814 33.0814C33.9571 32.2015 34.7533 31.2419 35.4488 30.2153C36.1486 29.1803 36.7478 28.07 37.2339 26.9218C37.7283 25.7528 38.1096 24.5293 38.3652 23.2848C38.625 22.0068 38.7591 20.6953 38.7591 19.3795C38.7591 18.0638 38.625 16.7523 38.3652 15.4743ZM19.3837 38.0635C9.06334 38.0635 0.699758 29.6999 0.699758 19.3795C0.699758 9.05915 9.06334 0.69557 19.3837 0.69557C29.7041 0.69557 38.0677 9.05915 38.0677 19.3795C38.0677 29.6999 29.7041 38.0635 19.3837 38.0635Z" fill="black"/>
<path id="Vector_3" d="M27.6723 7.08525C26.8803 6.54891 26.0339 6.08799 25.154 5.71926C24.2573 5.34214 23.3229 5.04883 22.3717 4.85608C21.6677 4.71362 20.947 4.62143 20.2263 4.57953L19.3841 3.7373L18.5419 4.57953C17.817 4.62143 17.1005 4.71362 16.3965 4.85608C15.4453 5.04883 14.5067 5.34214 13.6142 5.71926C12.7343 6.09218 11.8879 6.54891 11.0959 7.08525C10.3124 7.61741 9.5749 8.22498 8.90029 8.89541C8.22986 9.56583 7.62228 10.3033 7.09013 11.0911C6.55379 11.883 6.09287 12.7294 5.72414 13.6093C5.34702 14.506 5.05371 15.4405 4.86096 16.3916C4.7185 17.0956 4.62631 17.8163 4.58441 18.537L3.74219 19.3792L4.58441 20.2214C4.62631 20.9463 4.7185 21.6629 4.86096 22.3668C5.05371 23.318 5.34702 24.2566 5.72414 25.1491C6.09706 26.029 6.55379 26.8754 7.09013 27.6674C7.62228 28.4509 8.22986 29.1884 8.90029 29.863C9.57071 30.5334 10.3082 31.141 11.0959 31.6732C11.8879 32.2095 12.7343 32.6704 13.6142 33.0392C14.5109 33.4163 15.4453 33.7096 16.3965 33.9023C17.1005 34.0448 17.8212 34.137 18.5419 34.1789L19.3841 35.0211L20.2263 34.1789C20.9512 34.137 21.6677 34.0448 22.3717 33.9023C23.3229 33.7096 24.2614 33.4163 25.154 33.0392C26.0339 32.6662 26.8803 32.2095 27.6723 31.6732C28.4558 31.141 29.1933 30.5334 29.8679 29.863C30.5383 29.1926 31.1459 28.4551 31.6781 27.6674C32.2144 26.8754 32.6753 26.029 33.044 25.1491C33.4212 24.2524 33.7145 23.318 33.9072 22.3668C34.0497 21.6629 34.1419 20.9421 34.1838 20.2214L35.026 19.3792L34.1838 18.537C34.1419 17.8121 34.0497 17.0956 33.9072 16.3916C33.7145 15.4405 33.4212 14.5019 33.044 13.6093C32.6711 12.7294 32.2144 11.883 31.6781 11.0911C31.1459 10.3075 30.5383 9.57002 29.8679 8.89541C29.1975 8.22498 28.46 7.61741 27.6723 7.08525ZM33.9072 18.5202L33.0524 19.375L33.9072 20.2298C33.4798 27.5836 27.5926 33.4708 20.2389 33.8982L19.3841 33.0434L18.5293 33.8982C11.1755 33.4708 5.28836 27.5836 4.86096 20.2298L5.71576 19.375L4.86096 18.5202C5.28836 11.1665 11.1755 5.27929 18.5293 4.85189L19.3841 5.70669L20.2389 4.85189C27.5926 5.27929 33.4798 11.1665 33.9072 18.5202Z" fill="#D3D527"/>
</g>
<path id="Vector_4" d="M19.3122 24.7302C19.4672 24.3196 19.5929 23.8964 19.6893 23.4648C19.7815 23.0583 19.8234 22.6603 19.8234 22.279C19.8234 21.508 19.639 20.7873 19.3122 20.1587C18.9853 20.7873 18.801 21.508 18.801 22.279C18.801 22.6603 18.8429 23.0583 18.935 23.4648C19.0314 23.8964 19.1571 24.3196 19.3122 24.7302ZM24.1099 17.6279C24.0051 17.6195 23.9046 17.6111 23.7998 17.5944C23.3682 17.5944 22.9534 17.6446 22.5637 17.7326C21.4701 17.9757 20.5357 18.5413 19.8736 19.3249C20.2591 19.9283 20.5273 20.6155 20.6488 21.3571C22.1489 20.4311 23.3305 19.1322 24.1099 17.6321V17.6279ZM17.9755 21.3529C18.097 20.6113 18.3652 19.9283 18.7507 19.3207C18.0886 18.5372 17.1542 17.9715 16.0606 17.7284C15.6667 17.6405 15.2519 17.5944 14.8245 17.5902C14.7197 17.6027 14.615 17.6153 14.5144 17.6237C15.2938 19.1238 16.4754 20.4227 17.9755 21.3488V21.3529ZM12.8174 18.4869C12.39 18.1433 11.8369 18.0092 11.3005 18.1223C11.3089 18.667 11.5603 19.1824 11.9835 19.5218C12.4109 19.8654 12.964 19.9995 13.5004 19.8864C13.492 19.3417 13.2406 18.8263 12.8174 18.4869ZM10.6301 23.8335C10.2027 24.1771 9.64962 24.3112 9.11328 24.1981C9.12166 23.6533 9.37307 23.138 9.79628 22.7986C10.2237 22.455 10.7768 22.3209 11.3131 22.434C11.3047 22.9787 11.0533 23.4941 10.6301 23.8335ZM15.4069 23.3642C15.2728 23.8168 14.9418 24.1855 14.506 24.3699C14.242 23.976 14.1708 23.4857 14.3049 23.0332C14.439 22.5807 14.77 22.2119 15.2058 22.0276C15.4698 22.4214 15.541 22.9117 15.4069 23.3642ZM25.9536 18.7131C26.381 18.3695 26.9341 18.2355 27.4704 18.3486C27.462 18.8933 27.2106 19.4087 26.7874 19.7481C26.36 20.0917 25.8069 20.2258 25.2706 20.1127C25.279 19.5679 25.5304 19.0525 25.9536 18.7131ZM28.1408 24.0598C28.5682 24.4034 29.1213 24.5375 29.6577 24.4243C29.6493 23.8796 29.3979 23.3642 28.9747 23.0248C28.5473 22.6812 27.9942 22.5471 27.4578 22.6603C27.4662 23.205 27.7176 23.7204 28.1408 24.0598ZM23.3641 23.5905C23.4981 24.043 23.8292 24.4118 24.2649 24.5961C24.5289 24.2023 24.6001 23.712 24.4661 23.2595C24.332 22.8069 24.001 22.4382 23.5652 22.2538C23.3012 22.6477 23.23 23.138 23.3641 23.5905ZM15.6793 14.2757C15.2728 13.9489 14.7449 13.8232 14.2379 13.928C14.2462 14.4475 14.4851 14.9378 14.8873 15.2604C15.2938 15.5873 15.8217 15.713 16.3288 15.6082C16.3204 15.0886 16.0815 14.5984 15.6793 14.2757ZM23.0833 14.2757C23.4898 13.9489 24.0177 13.8232 24.5247 13.928C24.5163 14.4475 24.2775 14.9378 23.8753 15.2604C23.4688 15.5873 22.9408 15.713 22.4338 15.6082C22.4422 15.0886 22.6811 14.5984 23.0833 14.2757ZM22.5176 10.8272C22.6056 10.3789 22.4883 9.91378 22.195 9.55762C21.7927 9.77551 21.5078 10.1652 21.4198 10.6135C21.3318 11.0619 21.4491 11.527 21.7425 11.8832C22.1447 11.6653 22.4296 11.2756 22.5176 10.8272ZM16.069 10.9446C15.9684 10.4962 16.0773 10.0311 16.3581 9.66656C16.7645 9.87607 17.062 10.2532 17.1584 10.7015C17.259 11.1499 17.15 11.615 16.8693 11.9795C16.4628 11.77 16.1653 11.3929 16.069 10.9446ZM27.8475 12.5997C28.254 12.2728 28.7819 12.1471 29.289 12.2519C29.2806 12.7715 29.0417 13.2617 28.6395 13.5844C28.233 13.9112 27.7051 14.0369 27.1981 13.9322C27.2064 13.4126 27.4453 12.9223 27.8475 12.5997ZM10.584 12.5997C10.1776 12.2728 9.64962 12.1471 9.14261 12.2519C9.15099 12.7715 9.38983 13.2617 9.79209 13.5844C10.1985 13.9112 10.7265 14.0369 11.2335 13.9322C11.2251 13.4126 10.9863 12.9223 10.584 12.5997ZM10.2572 14.7367C10.76 15.4574 11.4388 16.0063 12.214 16.3457C12.4989 16.4714 12.7964 16.5678 13.1023 16.6348C12.4612 14.7786 12.3355 12.7338 12.83 10.7225L13.7057 10.9362C13.2196 12.9223 13.3914 14.9462 14.108 16.7438C14.3133 16.7438 14.5228 16.727 14.7323 16.7019H14.7574H14.791C15.298 16.7019 15.7924 16.7563 16.2575 16.8611C16.5173 16.9197 16.7687 16.991 17.0076 17.079C16.8777 16.2577 16.8525 15.4322 16.9363 14.6152C16.9489 14.4853 16.9657 14.3595 16.9824 14.2297C16.8358 13.9028 16.6095 13.6221 16.3288 13.4126C16.0187 13.1779 15.6458 13.0271 15.2477 12.9894L15.3315 12.0927C15.9014 12.1471 16.4335 12.3608 16.8693 12.6919C16.9992 12.7882 17.1207 12.8972 17.2296 13.0145C17.3847 12.4572 17.59 11.9083 17.8456 11.3845L18.6585 11.7784C18.2101 12.7002 17.9294 13.6933 17.8288 14.7031C17.7325 15.6459 17.7911 16.6097 18.0132 17.5525C18.4993 17.8416 18.935 18.1936 19.308 18.6C19.6893 18.181 20.1376 17.8206 20.6404 17.5273C20.8625 16.572 20.917 15.5957 20.8122 14.6403C20.6991 13.6053 20.4058 12.5997 19.9323 11.6653L20.7368 11.2588C21.0217 11.8245 21.248 12.4111 21.4156 13.0145C21.5288 12.8972 21.6503 12.7882 21.776 12.6919C22.2118 12.3608 22.7439 12.1471 23.3138 12.0927L23.3976 12.9894C22.9995 13.0271 22.6266 13.1779 22.3165 13.4126C22.0358 13.6221 21.8095 13.9028 21.6628 14.2297C21.6796 14.3344 21.6922 14.4392 21.7006 14.5439C21.7885 15.3778 21.7718 16.2242 21.6377 17.0622C21.8682 16.9826 22.107 16.9114 22.3542 16.8569C22.8193 16.7521 23.3096 16.6977 23.8208 16.6977H23.8543H23.8794C24.089 16.727 24.2943 16.7396 24.4996 16.7396C25.2161 14.9378 25.3879 12.9181 24.9018 10.932L25.7776 10.7183C26.272 12.7296 26.1463 14.7786 25.5052 16.6348C25.8111 16.5678 26.1086 16.4714 26.3935 16.3457C27.1645 16.0063 27.8475 15.4574 28.3504 14.7367L29.092 15.2521C28.4928 16.111 27.6799 16.7647 26.7539 17.1712C26.2343 17.3974 25.6812 17.5483 25.1114 17.6069C24.7049 18.4869 24.1728 19.3123 23.5317 20.054C24.2314 20.4102 24.8683 20.8753 25.4214 21.42C25.4843 21.4828 25.5429 21.5457 25.6058 21.6085C26.4941 21.3529 27.152 20.9172 27.5752 20.3012C28.0445 19.6224 28.2414 18.7048 28.1702 17.5525L29.0711 17.498C29.1549 18.8556 28.9035 19.9618 28.3168 20.8124C27.835 21.5122 27.1352 22.0234 26.2217 22.3502C26.5611 22.8153 26.8461 23.3223 27.0765 23.8629L26.2469 24.2106C25.9033 23.3977 25.4047 22.6645 24.7845 22.0527C24.2356 21.5122 23.5945 21.0638 22.8822 20.7328C22.2411 21.3488 21.5162 21.8935 20.7117 22.3418C20.7075 22.765 20.6572 23.2008 20.5566 23.6492C20.3848 24.4076 20.1334 25.1409 19.8024 25.8364C19.8736 25.9663 19.9449 26.0962 20.0203 26.2261C20.5273 27.0767 21.1684 27.8519 21.9268 28.5139L21.3318 29.1928C20.5231 28.4888 19.8401 27.6717 19.2954 26.775C18.7507 27.6717 18.0635 28.4888 17.259 29.1928L16.664 28.5139C17.4224 27.8519 18.0635 27.0767 18.5705 26.2261C18.6459 26.1004 18.7213 25.9705 18.7884 25.8364C18.4574 25.1409 18.206 24.4076 18.0342 23.6492C17.9336 23.205 17.8833 22.7692 17.8791 22.346C17.0746 21.8977 16.3497 21.3529 15.7086 20.737C14.9963 21.0638 14.3552 21.5122 13.8063 22.0569C13.1861 22.6687 12.6875 23.4019 12.3439 24.2148L11.5142 23.8671C11.7405 23.3265 12.0296 22.8195 12.369 22.3544C11.4556 22.0276 10.7558 21.5122 10.274 20.8166C9.68733 19.966 9.43592 18.8598 9.51973 17.5022L10.4206 17.5567C10.3494 18.7131 10.5505 19.6266 11.0156 20.3054C11.4388 20.9172 12.0967 21.3529 12.985 21.6127C13.0437 21.5499 13.1065 21.487 13.1694 21.4242C13.7225 20.8795 14.3594 20.4143 15.0591 20.0582C14.418 19.3165 13.8859 18.4911 13.4794 17.6111C12.9096 17.5483 12.3565 17.4016 11.8369 17.1753C10.9109 16.7689 10.098 16.1152 9.49878 15.2562L10.2404 14.7409L10.2572 14.7367Z" fill="#D3D527"/>
</g>
<g id="Group_3">
<path id="Vector_5" d="M47.5293 30.6652V8.09277H59.509C60.7409 8.09277 61.8597 8.4238 62.8695 9.09003C63.8752 9.75208 64.621 10.5817 65.1071 11.579C65.5931 12.5721 65.7984 13.6783 65.7272 14.885C65.656 16.0918 65.2286 17.1938 64.4492 18.1911C65.92 18.3335 67.1854 18.9369 68.2539 20.0054C69.226 20.9524 69.8126 22.0628 70.0137 23.3282C70.2149 24.5979 70.085 25.7627 69.6241 26.8312C69.1631 27.8997 68.4173 28.8048 67.3865 29.5506C66.3557 30.2965 65.1783 30.6694 63.85 30.6694H47.5335L47.5293 30.6652ZM49.9805 18.1534H59.509C60.1962 18.1534 60.8079 18.0109 61.3401 17.726C61.8722 17.441 62.2745 17.0807 62.5469 16.6407C62.8192 16.2008 63.0204 15.7105 63.1503 15.1658C63.2801 14.6211 63.2801 14.0805 63.1503 13.5484C63.0204 13.0162 62.8192 12.5218 62.5469 12.0734C62.2745 11.6251 61.8722 11.2605 61.3401 10.9882C60.8079 10.7158 60.1962 10.5775 59.509 10.5775H49.9805V18.1492V18.1534ZM49.9805 28.214H63.8416C64.5288 28.214 65.1406 28.0715 65.6727 27.7866C66.2049 27.5016 66.6155 27.1329 66.9005 26.6846C67.1854 26.2362 67.3907 25.7418 67.5206 25.2096C67.6505 24.6775 67.6505 24.1369 67.5206 23.5922C67.3907 23.0475 67.1812 22.5572 66.9005 22.1173C66.6155 21.6773 66.2091 21.3169 65.6727 21.032C65.1406 20.7471 64.5288 20.6046 63.8416 20.6046H49.9805V28.2098V28.214Z" fill="black"/>
<path id="Vector_6" d="M75.045 30.6652H72.5938V8.09277H75.045V30.6652Z" fill="black"/>
<path id="Vector_7" d="M77.8145 19.3979C77.8145 17.3614 78.3173 15.4717 79.3271 13.7286C80.3328 11.9854 81.7071 10.6111 83.4502 9.60542C85.1933 8.59978 87.0706 8.09277 89.086 8.09277C90.6992 8.09277 92.2077 8.40704 93.6198 9.03556C95.0277 9.66409 96.2219 10.4854 97.194 11.5078C98.1661 12.526 98.9287 13.7118 99.486 15.061C100.043 16.4103 100.349 17.7846 100.412 19.1842C100.471 20.5837 100.223 22.0041 99.6662 23.4497C99.1089 24.8954 98.2499 26.1943 97.0892 27.3424C95.9286 28.4905 94.6254 29.3453 93.1798 29.9026C91.7342 30.4599 90.3137 30.7155 88.9142 30.6652C87.5147 30.6191 86.1403 30.3174 84.7911 29.7601C83.4419 29.2029 82.256 28.4402 81.2378 27.4681C80.2196 26.496 79.3942 25.306 78.7656 23.8939C78.1371 22.486 77.8228 20.9859 77.8228 19.3979H77.8145ZM95.3377 25.6203C97.0683 23.8897 97.9315 21.8114 97.9315 19.3811C97.9315 16.9508 97.0683 14.8725 95.3377 13.1419C94.4369 12.241 93.4187 11.579 92.2789 11.1516C91.1392 10.7242 90.0288 10.5315 88.9394 10.565C87.8499 10.5985 86.7772 10.8373 85.7213 11.2773C84.6654 11.7173 83.7435 12.3123 82.9474 13.0707C82.1513 13.8291 81.506 14.7593 81.0116 15.8613C80.5129 16.9634 80.2657 18.1366 80.2657 19.3811C80.2657 20.6256 80.5129 21.7988 81.0116 22.9008C81.5102 24.0029 82.1555 24.9331 82.9474 25.6915C83.7394 26.4499 84.6654 27.0491 85.7213 27.4849C86.7772 27.9248 87.8499 28.1679 88.9394 28.214C90.0288 28.2601 91.1434 28.0673 92.2789 27.6273C93.4145 27.1874 94.4369 26.5211 95.3377 25.6203Z" fill="black"/>
<path id="Vector_8" d="M103.142 23.893C102.513 22.4852 102.199 20.9767 102.199 19.3802C102.199 17.7838 102.513 16.2753 103.142 14.8674C103.771 13.4595 104.592 12.2653 105.614 11.2932C106.632 10.3211 107.818 9.55847 109.167 9.00118C110.517 8.44389 111.891 8.1422 113.291 8.0961C114.69 8.05001 116.111 8.30561 117.556 8.85871C119.002 9.41601 120.305 10.2624 121.466 11.4021L119.723 13.1453C118.822 12.2444 117.803 11.5823 116.664 11.1549C115.528 10.7275 114.414 10.5348 113.324 10.5683C112.235 10.6018 111.162 10.8407 110.106 11.2806C109.05 11.7206 108.128 12.3156 107.332 13.074C106.536 13.8324 105.891 14.7627 105.396 15.8647C104.898 16.9667 104.65 18.1399 104.65 19.3844C104.65 20.6289 104.898 21.8022 105.396 22.9042C105.895 24.0062 106.54 24.9364 107.332 25.6948C108.124 26.4532 109.05 27.0524 110.106 27.4882C111.162 27.9282 112.235 28.1712 113.324 28.2173C114.414 28.2634 115.528 28.0706 116.664 27.6307C117.799 27.1907 118.822 26.5245 119.723 25.6236L121.466 27.3667C120.305 28.5022 119.002 29.3528 117.556 29.9101C116.111 30.4674 114.69 30.723 113.291 30.6727C111.891 30.6266 110.517 30.325 109.167 29.7677C107.818 29.2104 106.632 28.4478 105.614 27.4756C104.596 26.5035 103.771 25.3135 103.142 23.9014V23.893Z" fill="black"/>
<path id="Vector_9" d="M121.893 19.3979C121.893 17.3614 122.395 15.4717 123.405 13.7286C124.411 11.9854 125.785 10.6111 127.528 9.60542C129.271 8.59978 131.149 8.09277 133.164 8.09277C134.777 8.09277 136.286 8.40704 137.698 9.03556C139.106 9.66409 140.3 10.4854 141.272 11.5078C142.244 12.526 143.007 13.7118 143.564 15.061C144.121 16.4103 144.427 17.7846 144.49 19.1842C144.549 20.5837 144.302 22.0041 143.744 23.4497C143.187 24.8954 142.328 26.1943 141.167 27.3424C140.007 28.4905 138.704 29.3453 137.258 29.9026C135.812 30.4599 134.392 30.7155 132.992 30.6652C131.593 30.6191 130.218 30.3174 128.869 29.7601C127.52 29.2029 126.334 28.4402 125.316 27.4681C124.298 26.496 123.472 25.306 122.844 23.8939C122.215 22.486 121.901 20.9859 121.901 19.3979H121.893ZM139.416 25.6203C141.146 23.8897 142.01 21.8114 142.01 19.3811C142.01 16.9508 141.146 14.8725 139.416 13.1419C138.515 12.241 137.497 11.579 136.357 11.1516C135.222 10.7242 134.107 10.5315 133.017 10.565C131.928 10.5985 130.855 10.8373 129.799 11.2773C128.744 11.7173 127.822 12.3123 127.026 13.0707C126.229 13.8291 125.584 14.7593 125.09 15.8613C124.591 16.9634 124.344 18.1366 124.344 19.3811C124.344 20.6256 124.591 21.7988 125.09 22.9008C125.588 24.0029 126.234 24.9331 127.026 25.6915C127.817 26.4499 128.744 27.0491 129.799 27.4849C130.855 27.9248 131.928 28.1679 133.017 28.214C134.107 28.2601 135.222 28.0673 136.357 27.6273C137.493 27.1874 138.515 26.5211 139.416 25.6203Z" fill="black"/>
<path id="Vector_10" d="M149.69 30.6652H147.238V8.09277H149.69V30.6652Z" fill="black"/>
<path id="Vector_11" d="M153.424 30.6652V8.09277H164.729C166.765 8.09277 168.651 8.59559 170.381 9.60542C172.112 10.6111 173.478 11.9854 174.488 13.7286C175.493 15.4717 176 17.3614 176 19.3979V30.6652H173.549V19.3979C173.549 16.9592 172.682 14.8767 170.955 13.1587C169.225 11.4407 167.151 10.5817 164.733 10.5817H155.883V30.6652H153.432H153.424Z" fill="black"/>
</g>
</g>
</svg>
