<svg xmlns="http://www.w3.org/2000/svg" viewBox="0 0 400 142">
  <defs/>
  <g fill="#00aeef">
    <path fill-rule="evenodd" d="M398.868 57.269C345.424 21.585 275.707 0 199.44 0 123.161 0 53.444 21.585 0 57.269c53.157-17.673 115.3-28.635 199.44-28.635 84.128 0 146.284 10.962 199.428 28.635z" clip-rule="evenodd"/>
    <path d="M168.856 75.817c-3.912 0-5.924 3.174-6.45 7.061-.574 4.287-2.824 19.173-3.324 22.96-.3 2.262-.462 4.637-2.662 5.6-2.2.974-4.874-.525-7.15-2.463-2.286-1.937-36.045-30.684-36.045-30.684a10.233 10.233 0 00-6.7-2.487c-5.099 0-9.998 3.162-9.998 10.899v47.932c0 3.737 2.637 6.124 5.787 6.124 3.474 0 5.724-2.3 6.224-5.674 0 0 3.712-22.848 4.162-25.397.525-2.962.987-5.287 3.85-6.175 2.587-.8 5.036.7 8.673 3.887 3.588 3.138 33.997 30.597 33.997 30.597 2.324 1.962 4.024 2.762 7.311 2.762 2.988 0 8.412-1.225 8.412-10.349V82.666c0-4.425-2.75-6.85-6.087-6.85zM386.344 126.898c-26.497 5.7-56.806-.387-56.806-19.123 0-14.16 13.136-19.935 23.485-20.76 10.861-.862 19.348 1.413 23.71 5.95 2.725 2.824 1.962 6.699-3.387 7.011-4.937.3-14.186.588-21.898.875-4.374.163-6.712 2.5-6.712 5.65 0 2.487 1.875 5.349 6.912 5.374 7.212.037 25.522.15 34.621.175 6 .012 8.962-3.35 8.962-10.249 0-10.936-9.912-27.534-38.92-27.534-26.285 0-45.296 13.086-45.296 34.496 0 30.346 44.658 39.608 77.392 28.334 3.1-1.062 5.911-3.287 5.011-6.762-.8-3.087-3.312-4.25-7.074-3.437zM78.991 126.898c-26.497 5.7-56.806-.387-56.806-19.123 0-14.16 13.136-19.935 23.485-20.76 10.849-.862 19.335 1.413 23.71 5.95 2.724 2.824 1.975 6.699-3.387 7.011-4.937.3-14.199.588-21.898.875-4.374.163-6.712 2.5-6.712 5.65 0 2.487 1.875 5.349 6.912 5.374 7.212.037 25.535.15 34.621.175 6 .012 8.962-3.35 8.962-10.249 0-10.936-9.912-27.534-38.921-27.534-26.285 0-45.295 13.086-45.295 34.496 0 30.346 44.67 39.608 77.391 28.334 3.1-1.062 5.912-3.287 5.012-6.762-.8-3.087-3.312-4.25-7.074-3.437zM284.193 97.714c.575 16.548 2.137 30.272 2.575 35.084.562 6.211 3.774 7.974 7 7.974 3.086 0 6.36-1.613 6.936-7.912.475-5.312 2.05-21.672 2.812-37.87.038-.838-.55-1.2-1.212-1.088l-17.248 2.787c-.525.113-.888.525-.863 1.025zM293.805 74.254c-7.912 0-10.224 6.2-10.124 10 .012.699.087 2.661.2 5.086.025.55.525 1.075 1.187.987l17.998-2.924c.575-.113.85-.538.875-.988.05-.85.062-1.712.075-2.124.1-3.65-2.25-10.037-10.211-10.037zM267.358 100.639c-6 0-24.51.137-36.359.175-5.75.012-7.187 3.1-7.187 5.662 0 2.224 1.538 5.099 6.9 5.374 8.174.425 18.56.912 23.36 1.162 6.461.338 6.549 3.65 4.362 6.5-4.387 5.711-15.061 9.449-26.123 9.449-14.473 0-30.396-8.237-30.396-21.286 0-12.236 13.623-25.722 54.119-20.035 3.562.5 7.062-.137 7.936-3.437.925-3.5-1.35-5.75-5.949-6.962-9.174-2.412-17.535-2.987-25.535-2.987-27.246 0-49.107 13.011-49.107 34.034 0 22.447 21.773 33.421 48.907 33.421 30.31 0 45.07-16.498 45.07-30.921.025-7.337-3.712-10.15-9.998-10.15z" class="st2"/>
  </g>
</svg>
