<svg id="Camada_1" data-name="Camada 1" xmlns="http://www.w3.org/2000/svg" viewBox="0 0 424.87 385.28"><defs><style>.cls-1{fill:#000000;}.cls-2{fill:#ffffff;stroke:#ffffff;stroke-miterlimit:10;stroke-width:8px;}</style></defs><path class="cls-1" d="M455.43,169.87v-31a81.5,81.5,0,0,0-81.5-81.5H112.05a81.5,81.5,0,0,0-81.5,81.5v27.77c0,20.82,23.82,32.66,40.42,20.09l51.91-39.32c16.6-12.57,40.42-.73,40.42,20.09v2.16a25.22,25.22,0,0,1-11.05,20.86L92.06,231.34A25.2,25.2,0,0,0,92,273l60.32,41.21a25.2,25.2,0,0,1,11,20.81v1.59c0,20.84-23.87,32.67-40.46,20.05L71,317.23c-16.59-12.63-40.46-.8-40.46,20v23.86a81.5,81.5,0,0,0,81.5,81.5H373.93a81.5,81.5,0,0,0,81.5-81.5V340.52c0-20.84-23.88-32.67-40.47-20L363.14,359.9c-16.59,12.63-40.46.8-40.46-20v-1.58a25.18,25.18,0,0,1,11-20.81L394,276.25a25.21,25.21,0,0,0-.07-41.67l-60.19-40.83a25.2,25.2,0,0,1-11.05-20.85v-2.17c0-20.82,23.82-32.66,40.42-20.09L415,190C431.61,202.53,455.43,190.69,455.43,169.87Z" transform="translate(-30.55 -57.36)"/><path class="cls-2" d="M243,326.25q-14.85,0-26-5.59A42,42,0,0,1,199.58,305q-6.21-10.06-6.2-23.48v-63q0-13.62,6.2-23.58A42.2,42.2,0,0,1,217,179.34q11.19-5.58,26-5.59,15,0,26.13,5.59A42.42,42.42,0,0,1,286.4,194.9q6.19,9.94,6.2,23.55a0,0,0,0,1,0,0H262.2a.09.09,0,0,1-.1-.09q0-8.88-5-13.53T243,200.18q-9.15,0-14.13,4.68t-5,13.62v63q0,8.75,5,13.52T243,299.82q9.15,0,14.13-4.78t5-13.43a.09.09,0,0,1,.09-.09H292.6q0,13.41-6.2,23.48a42.17,42.17,0,0,1-17.28,15.66Q258,326.24,243,326.25Z" transform="translate(-30.55 -57.36)"/></svg>