<svg id="Camada_1" data-name="Camada 1" xmlns="http://www.w3.org/2000/svg" viewBox="0 0 450.38 416.68"><defs><style>.cls-1{fill:#000000;}.cls-2{fill:#ffffff;stroke:#ffffff;stroke-miterlimit:10;stroke-width:5px;}</style></defs><path class="cls-1" d="M464.53,189V100.4A66.94,66.94,0,0,0,397.6,33.47H81.09A66.94,66.94,0,0,0,14.15,100.4v95.83a8.85,8.85,0,0,0,14.64,6.69L94,146.44c13.67-11.84,34.93-2.13,34.93,16v8.92A21.08,21.08,0,0,1,120.78,188L62.29,233.38a21.11,21.11,0,0,0-.06,33.32l58.61,45.77A21.12,21.12,0,0,1,129,329.11v8.35c0,18.1-21.31,27.81-35,15.92l-62.8-54.63a10.29,10.29,0,0,0-17,7.76v76.7a66.94,66.94,0,0,0,66.94,66.94H397.6a66.94,66.94,0,0,0,66.93-66.94V296.1a9.27,9.27,0,0,0-15.36-7l-64.48,56.09c-13.66,11.89-35,2.18-35-15.93v-8.34a21.12,21.12,0,0,1,8.12-16.64l58.61-45.78a21.11,21.11,0,0,0-.06-33.32L357.9,179.81a21.1,21.1,0,0,1-8.18-16.68h0c0-21.58,25.36-33.17,41.68-19l59.24,51.29A8.4,8.4,0,0,0,464.53,189Z" transform="translate(-14.15 -33.47)"/><path class="cls-2" d="M238.34,337.63q-17.42,0-30.52-7a50.52,50.52,0,0,1-20.39-19.68q-7.27-12.65-7.28-29.51V202.2q0-17.12,7.28-29.64A50.74,50.74,0,0,1,207.82,153q13.11-7,30.52-7Q256,146,269,153a51,51,0,0,1,20.27,19.55q7.28,12.52,7.28,29.64H260.76q0-11.23-5.85-17.12t-16.57-5.88q-10.72,0-16.57,5.88t-5.85,17.12v79.22q0,11,5.85,17t16.57,6q10.72,0,16.57-6t5.85-17h35.77q0,16.86-7.28,29.51A50.78,50.78,0,0,1,269,330.61Q256,337.63,238.34,337.63Z" transform="translate(-14.15 -33.47)"/></svg>