<svg xmlns="http://www.w3.org/2000/svg" xmlns:xlink="http://www.w3.org/1999/xlink" width="1280" height="480" viewBox="0 0 1280 480">
  <defs>
    <clipPath id="clip-labor-analytics-logo">
      <rect width="1280" height="480"/>
    </clipPath>
  </defs>
  <g id="labor-analytics-logo" clip-path="url(#clip-labor-analytics-logo)">
    <g id="Grupo_379" data-name="Grupo 379" transform="translate(6890 2283.424)">
      <path id="Caminho_95" data-name="Caminho 95" d="M-6754-2196v231.319h153.666v-37.089h-115.349V-2196Z" transform="translate(0 -35.096)" />
      <path id="Caminho_103" data-name="Caminho 103" d="M-6738-2196v101.412h63.464V-2116.2h-43.619V-2196Z" transform="translate(578.564 247.863)" fill="#5ab6e5"/>
      <path id="Caminho_96" data-name="Caminho 96" d="M-6045.454-1999.777l107.955-242.647,101.3,242.647h-42.886L-5937.5-2146.3l-61.372,146.523Z" transform="translate(-535.656)" />
      <path id="Caminho_97" data-name="Caminho 97" d="M-6045.454-1999.777l107.955-242.647,101.3,242.647h-42.886L-5937.5-2146.3l-61.372,146.523Z" transform="translate(-535.656 155.677)" fill="#5ab6e5"/>
      <path id="Subtração_19" data-name="Subtração 19" d="M118.831,237.419a120.852,120.852,0,0,1-12.15-.613,119.229,119.229,0,0,1-11.8-1.8c-3.829-.783-7.66-1.767-11.388-2.925-3.686-1.145-7.36-2.488-10.918-3.992-3.525-1.489-7.02-3.171-10.388-5-3.344-1.814-6.64-3.815-9.8-5.946a119.427,119.427,0,0,1-32.1-32.064c-2.133-3.154-4.136-6.447-5.952-9.788-1.829-3.364-3.513-6.856-5-10.377-1.5-3.554-2.849-7.224-4-10.906-1.16-3.724-2.145-7.552-2.928-11.376a118.89,118.89,0,0,1-1.8-11.787,120.37,120.37,0,0,1,0-24.275,118.889,118.889,0,0,1,1.8-11.787c.783-3.825,1.769-7.652,2.928-11.376,1.147-3.683,2.491-7.352,4-10.907,1.491-3.521,3.175-7.013,5-10.377,1.816-3.34,3.819-6.633,5.952-9.788a119.426,119.426,0,0,1,32.1-32.064c3.158-2.131,6.454-4.132,9.8-5.946,3.368-1.828,6.863-3.509,10.388-5,3.558-1.5,7.231-2.846,10.918-3.992,3.728-1.158,7.56-2.143,11.388-2.925a119.248,119.248,0,0,1,11.8-1.8,120.74,120.74,0,0,1,24.3,0,119.243,119.243,0,0,1,11.8,1.8c3.829.783,7.66,1.767,11.388,2.925,3.686,1.145,7.36,2.488,10.918,3.992,3.525,1.489,7.02,3.171,10.388,5,3.344,1.814,6.64,3.815,9.8,5.946a119.427,119.427,0,0,1,32.1,32.064c2.133,3.154,4.136,6.447,5.952,9.788,1.83,3.365,3.513,6.856,5,10.377,1.5,3.554,2.849,7.224,4,10.907,1.16,3.724,2.145,7.552,2.928,11.376a118.893,118.893,0,0,1,1.8,11.787,120.363,120.363,0,0,1,0,24.275,118.893,118.893,0,0,1-1.8,11.787c-.783,3.825-1.769,7.652-2.928,11.376-1.147,3.683-2.491,7.352-4,10.906-1.491,3.521-3.174,7.012-5,10.377-1.816,3.34-3.819,6.633-5.952,9.788a119.427,119.427,0,0,1-32.1,32.064c-3.158,2.131-6.454,4.132-9.8,5.946-3.367,1.827-6.862,3.509-10.388,5-3.558,1.5-7.231,2.846-10.918,3.992-3.728,1.158-7.559,2.143-11.388,2.925a119.235,119.235,0,0,1-11.8,1.8A120.854,120.854,0,0,1,118.831,237.419Zm0-199.842a81.254,81.254,0,1,0,81.254,81.254A81.346,81.346,0,0,0,118.831,37.577Z" transform="translate(-6177.899 -2237.196)" />
      <path id="Subtração_20" data-name="Subtração 20" d="M97.6,231.94H0V0H85.4a65.861,65.861,0,0,1,9.089,1.236,81.322,81.322,0,0,1,9.3,2.431,71.4,71.4,0,0,1,10.645,4.428A52.471,52.471,0,0,1,134.264,25.3a47.9,47.9,0,0,1,3.651,6.473,51.021,51.021,0,0,1,2.785,7.489,58.165,58.165,0,0,1,1.748,8.579,70.447,70.447,0,0,1,.54,9.743c-.03,2.557-.166,5.087-.4,7.521-.228,2.328-.556,4.628-.974,6.838a66.679,66.679,0,0,1-3.328,11.738,55.547,55.547,0,0,1-9.874,16.485,50.606,50.606,0,0,1-5.231,5.182,46.081,46.081,0,0,1-4.551,3.432,29.937,29.937,0,0,1-4.429,2.485h0a37.728,37.728,0,0,1,6.325,1.92,51.249,51.249,0,0,1,27.847,25.983,58.707,58.707,0,0,1,2.591,6.4,65.911,65.911,0,0,1,2,7.289,76.456,76.456,0,0,1,1.286,8.23,91.27,91.27,0,0,1,.455,9.226,65.637,65.637,0,0,1-.641,9.255,57.83,57.83,0,0,1-1.812,8.311,53.452,53.452,0,0,1-6.468,13.983,62.6,62.6,0,0,1-19.627,18.747,84.058,84.058,0,0,1-10.483,5.529,92.838,92.838,0,0,1-9.145,3.476A72.44,72.44,0,0,1,97.6,231.94ZM40.017,136.156v60.026H83.55c.033,0,.82-.016,2.087-.163a36.77,36.77,0,0,0,5.206-1,32.95,32.95,0,0,0,6.746-2.606,25.92,25.92,0,0,0,6.705-4.977c4.843-5.048,7.184-11.956,6.958-20.534a33.381,33.381,0,0,0-4.649-16.976,27.789,27.789,0,0,0-9.487-9.216,33.237,33.237,0,0,0-5-2.433,35.845,35.845,0,0,0-4.343-1.374,27.767,27.767,0,0,0-4.222-.747H40.017Zm0-98.579V97.6H77.594c.006,0,.629-.013,1.634-.141a27.679,27.679,0,0,0,4.124-.862A26.715,26.715,0,0,0,88.8,94.362a23.345,23.345,0,0,0,5.6-4.271c4.929-5.131,7.32-12.455,7.109-21.769a37.459,37.459,0,0,0-4.013-16.976A26.071,26.071,0,0,0,89.3,42.13,27.243,27.243,0,0,0,84.987,39.7a27.973,27.973,0,0,0-3.749-1.374,20.961,20.961,0,0,0-3.644-.747H40.017Z" transform="translate(-6350.412 -2231.096)" />
      <path id="Subtração_21" data-name="Subtração 21" d="M171.545,231.94H124.222l-48.8-79.857H38.45V231.94H0V0H87.991c.01,0,1.06.068,2.859.317,1.66.23,4.315.665,7.539,1.436a87.269,87.269,0,0,1,10.658,3.279,79.675,79.675,0,0,1,12.218,5.847A64.069,64.069,0,0,1,148.4,41.488a71.59,71.59,0,0,1,3.282,9.588,82.782,82.782,0,0,1,2.112,10.955,100.276,100.276,0,0,1,.747,12.413c0,3.334-.148,6.626-.44,9.784-.279,3.021-.7,6-1.244,8.854-.521,2.721-1.171,5.4-1.933,7.965a75.09,75.09,0,0,1-2.507,7.118,65.871,65.871,0,0,1-13.471,20.818,62.322,62.322,0,0,1-7.195,6.4,58.546,58.546,0,0,1-6.276,4.16,39.433,39.433,0,0,1-6.123,2.932l56.2,89.469ZM39.189,38.213v74.681H82.814a39.261,39.261,0,0,0,4.852-1.633,51.6,51.6,0,0,0,4.974-2.313,48.267,48.267,0,0,0,5.7-3.552,38.343,38.343,0,0,0,10.675-11.543,36.321,36.321,0,0,0,4.852-18.67c0-8.025-1.633-14.962-4.852-20.619A31.016,31.016,0,0,0,98.342,43.5a35.7,35.7,0,0,0-5.7-2.871,38.367,38.367,0,0,0-4.974-1.592,29.917,29.917,0,0,0-4.852-.829H39.189Z" transform="translate(-5918.593 -2231.096)" />
      <path id="Caminho_104" data-name="Caminho 104" d="M-5102.667-946.772h21.8v-52.522l54.983,54.007,8.459.651v-103.784h-19.846v58.562L-5097.786-1052h-4.88Z" transform="translate(-1248.396 -899.952)" fill="#5ab6e5"/>
      <path id="Subtração_22" data-name="Subtração 22" d="M87.192,104.252H62.14L55.308,85.24h-25.7l-7.483,19.012H0L43.271,0,87.192,104.252Zm-44.5-55.125h0L35.55,65.394h13.49L42.691,49.127Z" transform="translate(-6256.063 -1950.976)" fill="#5ab6e5"/>
      <path id="Caminho_107" data-name="Caminho 107" d="M-4056.148-936.693h19.846v-30.073l35.788-71.9h-25.051l-20.5,44.572-18.545-44.572h-24.726l33.185,71.9Z" transform="translate(-2014.469 -910.032)" fill="#5ab6e5"/>
      <path id="Caminho_108" data-name="Caminho 108" d="M-3700-1036.364v20.585h17.894v80.685h22.774v-80.685h21.147v-20.585Z" transform="translate(-2308.802 -911.773)" fill="#5ab6e5"/>
      <path id="Caminho_109" data-name="Caminho 109" d="M-3386.667-1036.364v100.945h22.123v-100.945Z" transform="translate(-2545.68 -911.773)" fill="#5ab6e5"/>
      <path id="Caminho_110" data-name="Caminho 110" d="M-3170.641-1001.924l8.134-20.822s-25.588-11.938-46.931-5.368c-14.894,4.584-27.764,20.407-27.9,47.012-.142,28.15,13.235,45.062,29.362,49.371,20.75,5.544,45.467-6.425,45.467-6.425l-8.134-20.171s-15.2,10.772-28.549,6.832c-8.085-2.386-16.875-10.32-17-29.606-.1-15.074,6.681-22.263,12.363-26.027C-3190.514-1015.949-3170.641-1001.924-3170.641-1001.924Z" transform="translate(-2658.571 -916.518)" fill="#5ab6e5"/>
      <path id="Caminho_111" data-name="Caminho 111" d="M-2823.614-1030.061l-10.086,18.219s-22.449-14.64-29.281-3.253c-6.344,11.712,17.894,19.521,17.894,19.521s19.683,7.158,19.2,30.908c0,20.507-19.2,26.353-19.2,26.353s-28.956,6.832-44.247-6.832l7.808-19.521s11.387,10.248,27.166,7.483c0,0,10.809-5.135,4.51-14.117s-18.174-3.776-31.676-22,4.067-36.764,4.067-36.764,11.59-9.272,25.052-9.272S-2823.614-1030.061-2823.614-1030.061Z" transform="translate(-2921.66 -909.528)" fill="#5ab6e5"/>
    </g>
  </g>
</svg>
